# xmcd
#
# Track frame offsets:
#	150
#	14455
#	27393
#	40452
#	52381
#	55898
#	59387
#	62814
#	66163
#	69708
#	73372
#	76267
#	78983
#	81808
#	84721
#	87608
#	91000
#	108278
#	123698
#	137682
#	150482
#	162379
#	166663
#	170613
#	174215
#	177597
#
# Disc length: 2409 seconds
#
# Revision: 1
# Processed by: cddbd v1.5.2PL0 Copyright (c) Steve Scherf et al.
# Submitted via: audiograbber 1.83.01
#
DISCID=6e09671a
DTITLE=Joe Filisko - Buffalo Shuffle-O
DYEAR=1900
DGENRE=Blues
TTITLE0=Acoustic Harp Version at 60 bpm
TTITLE1=Acoustic Harp Version at 70 bpm
TTITLE2=Acoustic Harp Version at 80 bpm
TTITLE3=Acoustic Harp Version at 90 bpm
TTITLE4=Page 1 at 80 bpm
TTITLE5=Page 2 at 80 bpm
TTITLE6=Page 3 at 80 bpm
TTITLE7=Page 4 at 80 bpm
TTITLE8=Page 5 at 80 bpm
TTITLE9=Page 6 at 80 bpm
TTITLE10=Page 1 at 110 bpm
TTITLE11=Page 2 at 110 bpm
TTITLE12=Page 3 at 110 bpm
TTITLE13=Page 4 at 110 bpm
TTITLE14=Page 5 at 110 bpm
TTITLE15=Page 6 at 110 bpm
TTITLE16=Practice at 80 bpm
TTITLE17=Practice at 90 bpm
TTITLE18=Practice at 100 bpm
TTITLE19=Practice at 110 bpm
TTITLE20=Practice at 120 bpm
TTITLE21=End at 80 bpm
TTITLE22=End at 90 bpm
TTITLE23=End at 100 bpm
TTITLE24=End at 110 bpm
TTITLE25=End at 120 bpm
EXTD=
EXTT0=
EXTT1=
EXTT2=
EXTT3=
EXTT4=
EXTT5=
EXTT6=
EXTT7=
EXTT8=
EXTT9=
EXTT10=
EXTT11=
EXTT12=
EXTT13=
EXTT14=
EXTT15=
EXTT16=
EXTT17=
EXTT18=
EXTT19=
EXTT20=
EXTT21=
EXTT22=
EXTT23=
EXTT24=
EXTT25=
PLAYORDER=
